<svg xmlns="http://www.w3.org/2000/svg" width="16" height="15">
    <path fill-rule="evenodd" opacity=".302" fill="#26272D" d="M12.577 15.8V9.595c0-1.361.233-2.289-1.738-2.289-.946 0-1.511.625-1.029 1.23-.821.216-.842 1.014-.842.821V15.8h-3.43s.046-9.962 0-10.911h3.43v1.435l-.023.032h.023v-.032c.455-.69 1.268-1.672 3.612-1.672 1.734 0 4.12 2.318 4.12 4.554V15.8h-4.123zM1.925 3.507h-.022C.752 3.507.8 2.731.8 1.759.8.767.775.11 1.948.11c1.173 0 1.896.657 1.917 1.649 0 .972-.744 1.748-1.94 1.748zM3.639 15.8H.211V4.889h3.428V15.8z"/>
</svg>
