<svg xmlns="http://www.w3.org/2000/svg" width="24" height="28">
    <path fill-rule="evenodd" fill="#FFF" d="M17.828 6.259c4.122 0 5.356 3.139 5.356 3.139s-3.187 1.716-3.187 5.445c0 4.425 4.103 5.712 4.103 5.712s-3.259 7.443-6.807 7.443c-1.995 0-2.129-1.139-4.78-1.139-2.303 0-3.079 1.139-4.833 1.139-3.347 0-6.88-7.255-6.88-13.155 0-6.129 3.586-8.584 6.331-8.584 2.41 0 3.414 1.409 5.355 1.409 1.634 0 2.919-1.409 5.342-1.409zM17.266.1c.482 3.04-1.966 6.629-5.543 6.508C11.241 2.786 14.776.211 17.266.1z"/>
</svg>
