<svg xmlns="http://www.w3.org/2000/svg" width="24" height="15">
    <path fill-rule="evenodd" opacity=".302" fill="#26272D" d="M21.349 8.69v1.99h-1.927V8.69h-2.651V6.171h2.651V3.56h1.927v2.611H24V8.69h-2.651zM7.615 14.999C3.409 14.999 0 11.641 0 7.499 0 3.358 3.409 0 7.615 0c1.98 0 3.782.745 5.136 1.965L10.507 4.13c-.781-.651-1.79-.28-2.892-.28-2.476 0-4.482 1.76-4.482 3.649 0 2.438 2.006 4.414 4.482 4.414 1.915 0 3.548-1.183 4.19-2.263H7.518V5.933h8.102c-.449.506-.391 1.029-.391 1.566 0 4.142-3.409 7.5-7.614 7.5z"/>
</svg>
