<svg xmlns="http://www.w3.org/2000/svg" width="108" height="36">
    <path fill-rule="evenodd" fill="#26272D" d="M108 9.521s-.876 2.456-2.41 3.946c-.841.816-4.665 2.333-7.012 1.743l-1.014 3.224c2.416-1.504 5.936-2.135 5.349 0-.22 3.404-2.5 4.255-2.933 4.893-2.363 1.143-3.132.578-3.642.639.089.021 1.644.144 2.192.425 2.11 1.064.655 2.341 2.11 2.341-.138 0 .087.218.232-1.064.287-.851.945-.851.945-.851s1.027-.14 1.342-.08c1.031.164.452.764.301 1.189-.065.187-.486 1.011-.675 1.249-.425.94-2.301 1.071-3.248 1.046-.707-.036-2.103-.851-2.103-1.281 0-2.351-1.753-2.336-1.753-2.336l-1.082 2.979s-.137.66-.369.66c-.809 0-1.109-.038-1.97-.038-.892 0-.729-.622-.729-.622l1.2-3.354s-2.173 4.014-4.517 3.988c-.726-.008-1.571-.016-1.994-.806-.851-.831-.643-1.956-.277-3.038.591-1.749 1.38-3.691 1.19-3.599-1.387.675-2.323.076-2.51-.021-.624.842-1.228 1.237-2.092 1.595-1.416 7.292-6.844 6.61-8.141 4.809-.97-.467-1.496-2.736-1.019-4.591-.237.182-.7.357-1.139.364-.439.006-.855-.154-.895-.16-.236.949-.609 2.171-1.077 2.898-1.975 3.067-4.602 2.766-5.663 1.915-.609.367-1.084-1.04-.847-1.891-.895.425-1.38 1.245-2.428 1.915-.802.811-3.492 1.178-6.056-.976-1.416-1.679-1.923-4.306-.912-7.946.876-3.158 2.876-5.187 3.551-6.021 2.073-1.957 4.702-2.856 6.63-2.767 3.769.813 4.647 2.094 4.721 3.485.411.508.904-.598 1.489-.882 3.068-1.4 6.07-.944 10.08.24 5.544.052 9.899.028 15.286.18.192-1.377.371-1.4.371-1.4s1.479-5.23 2.27-7.751c.411-1.31.826-2.044 1.45-2.431.992-.616 2.599-.466 3.187.349.475.658 1.039 2.075-.561 5.006.112 1.697-2.138 3.81-2.62 4.827l-.347.03C106.149 10.521 108 9.521 108 9.521zM84.644 19.587c1.266-.284.764-1.037.614-1.454.382-.536-.885-.533-1.101.137-.502.97.517 1.294.487 1.317zm-8.467 5.655c.438 1.703 3.506 1.703 4.655-2.34.011-.068.044-.205.056-.274-.035.001-2.958-.151-2.739-1.641.098-.666 1.315-.426 2.411-.426.264 0 1.07-.002.722-.008.039-.667-.108-1.31-.722-1.906-.658.153-1.61-.426-3.726 2.553-.7 1.653-.901 3.096-.657 4.042zm-12.226-3.593s1.363-1.152 1.315-3.191c-.018-.752-.767-1.237-1.315-.213-.612 1.145 0 3.404 0 3.404zm16.874-7.234c-6.363-1.236-8.972-1.075-10.957.851-1.972 1.915-2.531.85-2.471.58.141-.628.249-1.493.185-2.013-.139-1.145-.832-1.937-2.39-1.971-1.972-.044-4.21.992-5.67 4.018-.912 3.027-2.124 7.65-1.049 8.536 1.361 1.726 3.861.092 3.91-.934-.16-.372-1.798-5.212.889-6.897 1.327-.712 5.281.383.898 6.554-.219 1.489 3.068 5.191 5.213 1.039.439-.787.561-1.771.615-2.673-.773-1.029-1.254-2.268-.852-3.256.329-.81 1.234-.889 1.592-.763.91.319 1.093 1.496.915 3.794.196.045.466.101.798.133 1.055.098 1.406-.442 1.519-.556 1.144-2.508 3.449-3.921 5.204-3.908 2.765.02 3.457 1.759 3.538 3.493.706-.048 1.033-.173 1.162-.314-.424-.372-.662-.658-.712-1.356-.052-.825.179-1.389.694-1.649.475-.239 1.419-.346 1.927.47.682 1.094-.476 2.4-.476 2.4.184.18.983.321 1.389-.283.653-.592 2.134-1.724 1.534-1.915.657-.851 3.052-.583 3.052-.583s-.863 2.67-1.43 4.413c-.362 1.118-1.378 3.726-1.095 4.256.514.963 2.065-.72 2.065-.72 1.558-1.509 3.121-5.502 3.121-5.502s.723-2.41 1.323-4.383c-3.366.026-9.817.037-14.441-.861zm15.665 8.487s2.082.384 3.485-2.341c1.753-3.404-1.675-1.761-3.068-.212l-.417 2.553zm4.708-14.619c1.461-1.813 2.009-4.629 1.753-5.319-.255-.691-.828-.043-1.066.712-.549 1.734-1.745 5.908-2.362 7.594.201-.545 1.151-1.42 1.675-2.987zm-48.384 5.158c-.613.909-2.874 1.184-5.202 1.549-1.347 4.39-2.09 6.415-2.314 7.166-.384 1.283-1.689 4.492-.155 4.503 1.657.006 1.009-1.504 1.315-1.702.657-.426 2.296-.639 2.516 0 .536.224-.325 1.243-.325 1.243s-.877 2.161-4.325 2.138c-.505-.003-3.944-.383-2.41-4.924.225-.668 1.231-4.22 2.388-8.076.198.011-.494.017-.721.017l-3.248.002c.275 2.451.418 2.903.369 5.587-.026 1.421-.348 8.721-2.027 11.795-1.413 2.586-2.778 3.011-3.685 3.203-.864.183-2.686-.016-3.371-1.309-.856-1.463.056-3.863.056-3.863l1.973-6.628c-1.053 2.028-2.338 4.137-4.534 4.008-1.978 0-1.244-1.654-1.244-1.654s-1.924 1.752-4.198 1.654c-2.89.09-3.095-1.66-3.095-1.66s-2.115 1.709-3.832 1.66c-.555-.021-1.57-.017-2.191-.807-.654-.831-.446-1.955-.08-3.038 1.176-1.749.896-2.69 1.131-3.574-.095.096-.778 1.242-2.23 1.375.145.03-.722.038-.997-.005-.701 3.01-2.078 4.594-3.11 5.275-2.294 1.513-6.01 1.3-7.826-.854C.26 24.843.48 22.216.529 18.576c.877-3.159 2.688-5.168 4.281-6.021 1.545-2.244 3.71-2.788 5.928-2.195 1.413-.152 3.963.85 4.211 3.27.45-.341 1.014-.705 1.705-1.04 3.068-1.49 6.289-.732 10.299-.213 3.861.5 7.247.567 10.461.317.197-.563.384-1.077.384-1.077s1.479-4.762 2.882-7.283c-.201-1.094.213-2.044.838-2.431.992-.615 2.599-.466 3.187.349.475.658.9 2.44-.561 5.006-.759 1.333-1.544 4.422-2.62 4.359l-.355.692a135.05 135.05 0 0 0 3.974-.571l.276-.044c1.09-3.469 2.142-6.514 3.551-7.164-.433-.533.818-1.204 1.651-1.614 1.179-.225.658.494.658.494l-2.448 7.692c4.297-.814 6.392-1.491 6.392-1.491s-.875 2.34-2.409 3.83zM23.27 24.81c.11 1.53 1.501 1.606 2.32 1.086.514-.327 1.214-1.234 1.579-2.468.454-1.533.78-2.929.694-3.586 0 0 1.057-1.348-1.013-1.513-.896-.119-1.735.824-2.549 2.638-.84 1.876-1.081 3.138-1.031 3.843zm-11.556-3.883s.488-1.471-.329-2.305c.085-.345-.845-.322-1.151.727.219 1.277 1.26 1.578 1.48 1.578zm16.116-6.21c-6.035-.799-10.533-1.292-12.272.638-1.146 1.272-1.89 1.035-2.148.773-.088.272-.043-.285-.043-.285l.074-.309c.444-2.16-1.283-2.794-3.163-3.039-1.587.355-3.001 1.343-4.462 4.37-1.461 3.027-1.703 6.6-.146 7.967.626 1.761 2.71 1.895 4.191.099.877-1.064 1.342-2.097 1.524-2.958-.706-.153-1.735-1.028-2.009-1.573-.272-1.259-.128-2.15.53-2.576.515-.334 1.934-.525 2.52.815.511 1.171.099 2.671.099 2.671.141-.169 1.118-.042 1.817-.627.946-.789 1.614-2.768 2.623-3.324.619-.179 2.849-.215 2.849-.215s-.968 3.208-1.534 5.816c-.363.253-.48 2.431-.768 2.87 1.005 1.02 2.755-.876 2.755-.876s-.065-3.401 3.613-6.132c.407-1.135 1.655-1.212 3.81-1.678.913.083.904 1.317.904 1.317s.589-.899.876-1.102c1.44-.438 2.63-.215 2.63-.215s-1.763 5.535-1.85 6.462c-.411.553-1.001 3.104-.013 2.994 2.313-.19 3.36-3.101 4.348-5.274l1.989-5.981c-3.367-.035-5.251-.165-8.744-.628zm11.616 2.103-4.88 14.34s-.372 1.257-.171 1.806c.154.421.445.608 1.065.365.669.359 1.79-.882 2.648-3.528 1.06-2.591 2.078-8.679 1.338-12.983zm3.068-7.972c1.461-2.236 2.008-4.628 1.753-5.319-.157-.691-.828-.043-1.067.712-.548 1.734-1.87 5.908-2.361 7.352.551-.303 1.151-1.943 1.675-2.745z"/>
</svg>
