<svg xmlns="http://www.w3.org/2000/svg" width="14" height="17">
    <path fill-rule="evenodd" opacity=".302" fill="#26272D" d="M5.74 11.245c-.473 2.343-1.05 4.589-2.76 6.455-.527-4.233.775-6.893 1.38-9.716-1.031-1.641.124-4.584 2.3-4.13 2.676 1.001-2.319 6.102 1.034 6.739 3.501.666 4.93-5.742 2.759-7.827C7.317.241 1.324 2.698 2.61 7.6c-.37 1 .781.779-.089 2.232C.513 9.412.85 7.915.8 5.919.116 2.653 3.95.365 6.84.49c3.025-.139 6.572.871 7.062 4.233.552 3.796-1.706 7.905-5.748 7.609-.574-.08-1.556-.593-2.414-1.087z"/>
</svg>
