<svg xmlns="http://www.w3.org/2000/svg" width="24" height="23">
    <path fill-rule="evenodd" fill="#F2BC3B" d="M14.87 6.871c.88.63.792 1.056 1.455 1.056h5.987c1.042 0 1.475 1.333.632 1.945L18.1 13.391a1.53 1.53 0 0 0-.555 1.71l1.85 5.694c.322.991-.812 1.816-1.655 1.202l-4.844-3.519c-.536.402-1.261.402-.906 0l-5.735 3.519c-.843.614-1.977-.211-1.655-1.202l1.851-5.694c.204-.63-.02-1.32-.556-1.71L1.51 9.872C.208 9.26.641 7.927 1.683 7.927h5.988c.662 0 1.249-.426 1.454-1.056l1.85-5.695c.322-.991 1.723-.991 2.225 0l1.67 5.695z"/>
</svg>
