<svg xmlns="http://www.w3.org/2000/svg" width="17" height="14">
    <path fill-rule="evenodd" opacity=".302" fill="#26272D" d="M16.999 1.658a6.912 6.912 0 0 1-2.003.556c.72-.437 1.273-.374 1.533-1.954a6.93 6.93 0 0 1-2.214.857A3.461 3.461 0 0 0 11.769 0C9.843 0 8.282 1.582 8.282 3.534c0 .278.031 1.276.09.806C5.475 4.193 2.905 2.786 1.185.648a3.553 3.553 0 0 0-.472 1.777c0 1.225.616 2.308 1.552 2.941a3.451 3.451 0 0 1-1.58-.442v.044c0 1.712 1.202 3.14 2.798 3.466a3.484 3.484 0 0 1-1.575.06c.443 1.404 1.732 2.425 3.257 2.454A6.936 6.936 0 0 1 .834 12.46c-.281 0-.559-.015-.634-.048 1.345 1.002 3.178 1.587 5.148 1.587 6.414 0 9.921-5.385 9.921-10.054 0-.154-.003-.306-.01-.457a7.141 7.141 0 0 0 1.74-1.829v-.001z"/>
</svg>
